<svg id="Capa_1" enable-background="new 0 0 512 512" height="512" viewBox="0 0 512 512" width="512" xmlns="http://www.w3.org/2000/svg"><g><path d="m285.762 312.654h-115c-4.143 0-7.5 3.358-7.5 7.5s3.357 7.5 7.5 7.5h115c4.143 0 7.5-3.358 7.5-7.5s-3.358-7.5-7.5-7.5z"/><path d="m285.762 363.678h-115c-4.143 0-7.5 3.358-7.5 7.5s3.357 7.5 7.5 7.5h115c4.143 0 7.5-3.358 7.5-7.5s-3.358-7.5-7.5-7.5z"/><path d="m285.762 414.701h-115c-4.143 0-7.5 3.358-7.5 7.5s3.357 7.5 7.5 7.5h115c4.143 0 7.5-3.358 7.5-7.5s-3.358-7.5-7.5-7.5z"/><path d="m183.616 148.996c-4.143 0-7.5 3.358-7.5 7.5v65.982c0 4.142 3.357 7.5 7.5 7.5s7.5-3.358 7.5-7.5v-65.982c0-4.142-3.357-7.5-7.5-7.5z"/><path d="m132.593 215.478h-30.18l35.438-54.388c1.502-2.306 1.621-5.249.31-7.668s-3.842-3.926-6.594-3.926h-41.638c-4.143 0-7.5 3.358-7.5 7.5s3.357 7.5 7.5 7.5h27.801l-35.438 54.388c-1.502 2.306-1.621 5.249-.31 7.668s3.842 3.926 6.594 3.926h44.018c4.143 0 7.5-3.358 7.5-7.5s-3.359-7.5-7.501-7.5z"/><path d="m253.013 149.496h-18.373c-4.132 0-7.5 3.361-7.5 7.5v65.982c0 4.142 3.357 7.5 7.5 7.5s7.5-3.358 7.5-7.5v-21.201c3.883-.02 8.358-.04 10.873-.04 14.604 0 26.484-11.717 26.484-26.12s-11.881-26.121-26.484-26.121zm0 37.24c-2.497 0-6.917.02-10.787.04-.06-12.234-.021-7.288-.063-22.28h10.851c6.226 0 11.484 5.093 11.484 11.121s-5.26 11.119-11.485 11.119z"/><path d="m490.61 105.697-103.5-103.5c-1.33-1.33-3.243-2.197-5.303-2.197h-195c-4.143 0-7.5 3.358-7.5 7.5s3.357 7.5 7.5 7.5h187.5v71c0 17.92 14.579 32.5 32.5 32.5h71v361c0 9.649-7.851 17.5-17.5 17.5h-28.878l-3.436-54.278c-.416-6.573-5.901-11.722-12.487-11.722h-3.006v-35.328h13.722c4.143 0 7.5-3.358 7.5-7.5s-3.357-7.5-7.5-7.5h-13.722v-20.043h13.722c4.143 0 7.5-3.358 7.5-7.5s-3.357-7.5-7.5-7.5h-13.722v-20.043h13.722c4.143 0 7.5-3.358 7.5-7.5s-3.357-7.5-7.5-7.5h-13.722v-20.043h13.722c4.143 0 7.5-3.358 7.5-7.5s-3.357-7.5-7.5-7.5h-13.722v-20.043h13.722c4.143 0 7.5-3.358 7.5-7.5s-3.357-7.5-7.5-7.5h-13.722v-17.522c0-4.142-3.357-7.5-7.5-7.5s-7.5 3.358-7.5 7.5v35.571h-13.722c-4.143 0-7.5 3.358-7.5 7.5s3.357 7.5 7.5 7.5h13.722v20.043h-13.722c-4.143 0-7.5 3.358-7.5 7.5s3.357 7.5 7.5 7.5h13.722v20.043h-13.722c-4.143 0-7.5 3.358-7.5 7.5s3.357 7.5 7.5 7.5h13.722v20.043h-13.722c-4.143 0-7.5 3.358-7.5 7.5s3.357 7.5 7.5 7.5h13.722v20.043h-13.722c-4.143 0-7.5 3.358-7.5 7.5s3.357 7.5 7.5 7.5h13.722v17.279h-3.449c-6.587 0-12.072 5.149-12.488 11.722l-3.435 54.278h-38.342c-4.143 0-7.5 3.358-7.5 7.5s3.357 7.5 7.5 7.5h120.521c17.921 0 32.5-14.58 32.5-32.5v-368.5c0-1.885-.743-3.85-2.197-5.303zm-97.452 391.303 3.228-51h16.784l3.229 51zm13.649-393.5c-9.649 0-17.5-7.851-17.5-17.5v-60.394l77.893 77.894z"/><path d="m338.46 131.155c0-12.407-10.094-22.5-22.5-22.5h-203.153v-76.155c0-9.649 7.851-17.5 17.5-17.5h21.5c4.143 0 7.5-3.358 7.5-7.5s-3.357-7.5-7.5-7.5h-21.5c-17.921 0-32.5 14.58-32.5 32.5v76.155h-56.114c-12.406 0-22.5 10.093-22.5 22.5v119.894c0 12.407 10.094 22.5 22.5 22.5h56.113v205.951c0 17.865 14.465 32.5 32.5 32.5h174.479c4.143 0 7.5-3.358 7.5-7.5s-3.357-7.5-7.5-7.5h-174.478c-9.77 0-17.5-7.932-17.5-17.5v-205.951h203.153c12.406 0 22.5-10.093 22.5-22.5zm-15 119.894c0 4.136-3.364 7.5-7.5 7.5h-210.653-63.614c-4.136 0-7.5-3.364-7.5-7.5v-119.894c0-4.136 3.364-7.5 7.5-7.5h274.267c4.136 0 7.5 3.364 7.5 7.5z"/></g></svg>